<?xml version="1.0" standalone="no"?><!DOCTYPE svg PUBLIC "-//W3C//DTD SVG 1.1//EN" "http://www.w3.org/Graphics/SVG/1.1/DTD/svg11.dtd"><svg t="1534341943296" class="icon" style="" viewBox="0 0 1024 1024" version="1.1" xmlns="http://www.w3.org/2000/svg" p-id="6605" xmlns:xlink="http://www.w3.org/1999/xlink" width="80" height="80"><defs><style type="text/css"></style></defs><path d="M751.412245 456.620408c4.179592-269.322449-218.644898-391.444898-233.665306-399.281632v-0.391837s-0.130612 0.130612-0.391837 0.261224c-0.261224-0.130612-0.391837-0.261224-0.391837-0.261224v0.391837c-15.020408 7.836735-237.844898 129.959184-233.665306 399.281632-45.322449 29.126531-92.865306 80.979592-85.289796 170.710204C205.583673 717.061224 293.093878 776.489796 326.530612 773.22449c33.436735-3.265306 23.771429-28.081633 23.771429-28.081633l11.493877-46.497959s49.371429 74.710204 65.175511 74.710204c14.236735-1.17551 81.893878-0.130612 89.991836 0h0.783674c8.097959-0.130612 75.755102-1.17551 89.991837 0 15.804082 0 65.17551-74.710204 65.17551-74.710204l11.493877 46.497959s-9.665306 24.816327 23.771429 28.081633 120.946939-56.163265 128.522449-145.893878c7.706122-89.730612-39.836735-141.583673-85.289796-170.710204z m-234.057143-3.918367c-6.4-0.130612-89.208163-3.134694-96.783673-99.395919 2.742857-91.559184 90.253061-99.657143 96.783673-100.048979 6.530612 0.522449 94.040816 8.620408 96.783674 100.048979-7.444898 96.261224-90.383673 99.265306-96.783674 99.395919z" fill="#f44336" p-id="6606"></path><path d="M468.506122 916.897959c0 10.971429-8.881633 19.853061-19.853061 19.853061s-19.853061-8.881633-19.853061-19.853061v-97.959183c0-10.971429 8.881633-19.853061 19.853061-19.853062s19.853061 8.881633 19.853061 19.853062v97.959183zM541.257143 969.926531c0 11.102041-9.012245 20.114286-20.114286 20.114285s-20.114286-9.012245-20.114286-20.114285V824.293878c0-11.102041 9.012245-20.114286 20.114286-20.114286s20.114286 9.012245 20.114286 20.114286v145.632653zM608.261224 893.779592c0 10.971429-8.881633 19.853061-19.853061 19.853061-10.971429 0-19.853061-8.881633-19.853061-19.853061v-69.877551c0-10.971429 8.881633-19.853061 19.853061-19.853061 10.971429 0 19.853061 8.881633 19.853061 19.853061v69.877551z" fill="#17abe3" p-id="6607"></path><path d="M448.653061 936.75102c-10.840816 0-19.853061-8.881633-19.853061-19.853061v-96.914286c0-10.840816 8.881633-19.853061 19.853061-19.853061 10.840816 0 19.853061 8.881633 19.853061 19.853061V916.897959c0 10.840816-8.881633 19.853061-19.853061 19.853061z" fill="#17abe3" p-id="6608"></path></svg>