<?xml version="1.0" standalone="no"?><!DOCTYPE svg PUBLIC "-//W3C//DTD SVG 1.1//EN" "http://www.w3.org/Graphics/SVG/1.1/DTD/svg11.dtd"><svg t="1534340546599" class="icon" style="" viewBox="0 0 1024 1024" version="1.1" xmlns="http://www.w3.org/2000/svg" p-id="2901" xmlns:xlink="http://www.w3.org/1999/xlink" width="32" height="32"><defs><style type="text/css"></style></defs><path d="M512 0C228.072727 0 0 228.072727 0 512s228.072727 512 512 512 512-228.072727 512-512S795.927273 0 512 0z m0 977.454545C256 977.454545 46.545455 768 46.545455 512S256 46.545455 512 46.545455s465.454545 209.454545 465.454545 465.454545-209.454545 465.454545-465.454545 465.454545z" fill="#A6ACBB" p-id="2902"></path><path d="M646.981818 279.272727c9.309091 9.309091 9.309091 23.272727 0 32.581818L432.872727 512l214.109091 195.490909c9.309091 9.309091 9.309091 23.272727 0 32.581818-9.309091 9.309091-27.927273 9.309091-37.236363 0l-228.072728-214.109091c-9.309091-4.654545-9.309091-9.309091-9.309091-13.963636 0-4.654545 4.654545-9.309091 4.654546-18.618182L605.090909 279.272727c4.654545-4.654545 9.309091-4.654545 18.618182-4.654545s18.618182 0 23.272727 4.654545z" fill="#A6ACBB" p-id="2903"></path></svg>