<?xml version="1.0" standalone="no"?><!DOCTYPE svg PUBLIC "-//W3C//DTD SVG 1.1//EN" "http://www.w3.org/Graphics/SVG/1.1/DTD/svg11.dtd"><svg t="1533562949066" class="icon" style="" viewBox="0 0 1024 1024" version="1.1" xmlns="http://www.w3.org/2000/svg" p-id="2197" xmlns:xlink="http://www.w3.org/1999/xlink" width="32" height="32"><defs><style type="text/css"></style></defs><path d="M255.510971 233.346342c-67.899127 43.54302-205.252026 20.003101-205.252026 20.003101l255.065448 404.117052" fill="#E2C9D2" p-id="2198"></path><path d="M829.758024 244.241814l2.344923-22.02414H291.190078l77.30473 728.662182h386.290454l68.572806-646.278944z" fill="#A27FA5" p-id="2199"></path><path d="M832.102947 221.803102s-68.145279-129.216923-153.598941-96.932125-79.027795-17.619312-79.027795-17.619312 10.752962-67.264314-36.275054-56.278154c-46.976194-10.986159-36.275054 56.278154-36.275053 56.278154s6.477688 49.917065-79.027795 17.619312-153.624852 96.932125-153.624852 96.932125" fill="#E2C9D2" p-id="2200"></path><path d="M769.865319 197.952255a12.955376 12.955376 0 0 1-11.54324-7.047725c-0.829144-1.619422-62.082163-118.386228-133.207178-90.752411-37.868565 14.704352-64.2198 15.66305-80.543575 2.902004-13.046064-10.182926-14.82095-26.312369-13.823386-34.241059a3.497952 3.497952 0 0 0 0-0.362751c1.917396-12.618536 1.295538-33.463737-6.02425-40.161666-0.997564-0.919832-4.042077-3.731148-13.42177-1.476913a12.955376 12.955376 0 0 1-6.050161 0c-9.366737-2.24128-12.41125 0.544126-13.408814 1.463958-7.345698 6.749751-7.941646 27.594951-6.02425 40.252354v0.349795c0.997564 7.915735-0.790278 24.045178-13.836342 34.228104-16.323774 12.761046-42.675009 11.802348-80.530619-2.902004-71.332302-27.802237-132.533499 89.508695-133.142401 90.700589a12.955376 12.955376 0 1 1-23.047615-11.828259 304.114502 304.114502 0 0 1 45.758389-63.597942c39.202969-41.081498 80.699039-54.736465 119.97974-39.487987s52.067657 9.068763 55.073304 6.749751c4.48256-3.381353 4.262319-9.664711 4.197542-10.727051-0.906876-6.127893-5.661499-44.592405 14.12136-62.833575 6.127893-5.648544 16.906766-11.465508 33.994907-8.26553 17.101097-3.199978 27.892925 2.591075 34.033774 8.278485 19.78286 18.24117 15.015281 56.705682 14.108405 62.833575-0.064777 1.049385-0.285018 7.332743 4.184586 10.714096 3.005647 2.267191 15.857381 8.485771 55.08626-6.749751s80.763816-1.593511 119.953829 39.487987A304.114502 304.114502 0 0 1 781.447426 179.076271a12.955376 12.955376 0 0 1-11.51733 18.875984zM285.114006 670.421871a12.955376 12.955376 0 0 1-10.960248-6.037205L19.075355 260.254659a12.955376 12.955376 0 0 1 13.201528-19.679217c1.295538 0.233197 133.246045 22.166649 196.07962-18.137526a12.959263 12.959263 0 0 1 13.991806 21.816853c-52.715426 33.800577-141.52453 30.12125-186.557418 25.496181l240.270408 380.810329a12.955376 12.955376 0 0 1-10.947293 19.860592z" fill="#5B2D61" p-id="2201"></path><path d="M701.473888 932.198204H315.183434a12.955376 12.955376 0 0 1-12.877644-11.582107l-77.317685-728.662182a12.955376 12.955376 0 0 1 12.890599-14.328646h540.91287a12.955376 12.955376 0 0 1 12.890599 14.328646l-8.744879 82.383238-68.585762 646.278944a12.955376 12.955376 0 0 1-12.877644 11.582107z m-374.630615-25.910753h362.970777l67.367956-634.683882 6.399956-60.372054 0.816189-7.695493h-512.126024zM754.552065 1023.987045H270.655806a12.955376 12.955376 0 0 1 0-25.910753h483.896259a12.955376 12.955376 0 0 1 0 25.910753z" fill="#5B2D61" p-id="2202"></path><path d="M927.972731 736.118584a12.696269 12.696269 0 0 1-2.085815-0.16842 12.955376 12.955376 0 0 1-10.727052-14.859816l64.608462-400.321127-86.334628-51.640129h-114.642124a12.955376 12.955376 0 0 1 0-25.910753h118.217808a12.955376 12.955376 0 0 1 6.646108 1.839664l96.958036 57.949398a12.955376 12.955376 0 0 1 6.140848 13.188573l-66.007642 409.027139a12.955376 12.955376 0 0 1-12.774001 10.895471zM581.862081 695.244372l21.669163-14.20557 86.802316 132.396172-21.669162 14.206866zM530.549723 788.629315l21.669162-14.206865 62.54467 95.396913-21.667867 14.206865z" fill="#5B2D61" p-id="2203"></path><path d="M517.896207 544.068087l-6.050161 65.139631 50.474146 42.312259-64.103202 13.914074-24.433839 60.57934-33.56738-56.550218-65.580115-4.871221 43.361644-48.854724-16.103532-63.597942 60.372053 26.351235 55.630386-34.422434z" fill="#BEE9F4" p-id="2204"></path><path d="M474.897313 740.562278l-38.529289-64.893479-75.257781-5.596723 49.7616-56.070868-18.4355-73.081278 69.311263 30.263759 63.805228-39.487987-6.944082 74.713655 58.014175 48.621527-73.677225 15.99989z m-86.723289-81.463406l55.889493 4.158676 28.618427 48.181044 20.806334-51.614219 54.542134-11.841213-42.882296-36.002991 5.182151-55.565609-47.546231 29.369838-51.368067-22.373935 13.706788 54.114607z" fill="#5B2D61" p-id="2205"></path></svg>