<?xml version="1.0" standalone="no"?><!DOCTYPE svg PUBLIC "-//W3C//DTD SVG 1.1//EN" "http://www.w3.org/Graphics/SVG/1.1/DTD/svg11.dtd"><svg t="1534338925187" class="icon" style="" viewBox="0 0 1024 1024" version="1.1" xmlns="http://www.w3.org/2000/svg" p-id="8739" xmlns:xlink="http://www.w3.org/1999/xlink" width="32" height="32"><defs><style type="text/css"></style></defs><path d="M512 512m-512 0a512 512 0 1 0 1024 0 512 512 0 1 0-1024 0Z" fill="#E6342E" p-id="8740"></path><path d="M362.975319 631.829787h348.595745l48.367659-256.653617h-435.74468z m364.282553 41.83149H345.763404a21.787234 21.787234 0 0 1-20.262127-17.64766L266.675745 283.234043H216.347234a21.787234 21.787234 0 0 1 0-41.83149H283.234043a20.262128 20.262128 0 0 1 20.044255 17.64766l11.765106 73.640851H784.340426a19.826383 19.826383 0 0 1 15.686808 7.625532 21.787234 21.787234 0 0 1 4.357447 17.211915l-56.428936 298.485106a20.262128 20.262128 0 0 1-20.697873 17.429787z" fill="#FFFFFF" p-id="8741"></path><path d="M413.957447 742.073191a42.267234 42.267234 0 1 1-42.267234-42.049361A42.267234 42.267234 0 0 1 413.957447 742.073191" fill="#FFFFFF" p-id="8742"></path><path d="M740.765957 742.073191a42.267234 42.267234 0 1 1-42.049361-42.049361A42.049362 42.049362 0 0 1 740.765957 742.073191" fill="#FFFFFF" p-id="8743"></path></svg>