<?xml version="1.0" standalone="no"?><!DOCTYPE svg PUBLIC "-//W3C//DTD SVG 1.1//EN" "http://www.w3.org/Graphics/SVG/1.1/DTD/svg11.dtd"><svg t="1533566013324" class="icon" style="" viewBox="0 0 1228 1024" version="1.1" xmlns="http://www.w3.org/2000/svg" p-id="14348" xmlns:xlink="http://www.w3.org/1999/xlink" width="38.375" height="32"><defs><style type="text/css"></style></defs><path d="M1009.664 450.56L737.28 425.1648V314.1632L1008.4352 286.72a81.92 81.92 0 1 1 0 160.9728zM137.216 450.56l272.384-25.3952V314.1632L138.4448 286.72a81.92 81.92 0 1 0 0 160.9728zM593.92 926.9248c192.1024 0 348.16-3.6864 348.16-128.2048S786.0224 573.44 593.92 573.44 245.76 674.2016 245.76 798.72s156.0576 128.2048 348.16 128.2048z" fill="#FF4A4A" p-id="14349"></path><path d="M245.76 819.2h696.32v163.84H245.76z" fill="#FF4A4A" p-id="14350"></path><path d="M593.92 122.88A225.28 225.28 0 0 1 819.2 348.16v163.84a225.28 225.28 0 0 1-225.28 225.28A225.28 225.28 0 0 1 368.64 512v-163.84A225.28 225.28 0 0 1 593.92 122.88z" fill="#FFDC78" p-id="14351"></path><path d="M819.2 378.4704H368.64v-163.84a122.88 122.88 0 0 1 81.92-115.9168A102.4 102.4 0 0 1 552.96 0h81.92A102.4 102.4 0 0 1 737.28 98.7136a122.88 122.88 0 0 1 81.92 115.9168z m-122.88 204.8z" fill="#FF4A4A" p-id="14352"></path><path d="M532.48 204.8h122.88a40.96 40.96 0 0 1 40.96 40.96 40.96 40.96 0 0 1-40.96 40.96h-122.88a40.96 40.96 0 0 1-40.96-40.96 40.96 40.96 0 0 1 40.96-40.96z" fill="#FFB450" p-id="14353"></path><path d="M582.4512 573.44H614.4a102.4 102.4 0 0 1 100.352 122.88q-53.248 272.7936-112.2304 272.7936T482.5088 696.32a102.4 102.4 0 0 1 99.9424-122.88z" fill="#953737" p-id="14354"></path><path d="M245.76 860.16m-122.88 0a122.88 122.88 0 1 0 245.76 0 122.88 122.88 0 1 0-245.76 0Z" fill="#FFB450" p-id="14355"></path><path d="M204.8 819.2h81.92v81.92H204.8z" fill="#FF4A4A" p-id="14356"></path><path d="M886.3744 865.8944c56.5248 0 102.4-27.4432 102.4-61.44s-45.8752-61.44-102.4-61.44-102.4 27.4432-102.4 61.44 45.8752 61.44 102.4 61.44z" fill="#FFDC78" p-id="14357"></path><path d="M758.1696 788.0704a643.8912 643.8912 0 0 0 133.9392 12.288 646.3488 646.3488 0 0 0 133.5296-12.288 20.48 20.48 0 0 1 23.7568 26.624l-51.6096 154.8288a20.48 20.48 0 0 1-19.2512 13.9264h-174.08a20.48 20.48 0 0 1-19.6608-14.336l-50.3808-154.8288a20.48 20.48 0 0 1 23.7568-26.2144z" fill="#FFB450" p-id="14358"></path><path d="M1227.9808 801.9968L1146.88 737.28l18.0224 89.7024 63.0784-24.9856z" fill="#FF4A4A" p-id="14359"></path><path d="M1061.2736 573.44L1024 645.5296l124.928-19.2512L1061.2736 573.44z" fill="#FFDC78" p-id="14360"></path><path d="M1013.3504 122.88L983.04 172.4416l109.7728-4.096L1013.3504 122.88z" fill="#FF4A4A" p-id="14361"></path><path d="M98.7136 532.48L40.96 575.0784l92.9792 29.0816L98.7136 532.48z" fill="#41ECEE" p-id="14362"></path><path d="M158.1056 81.92L81.92 138.0352l122.88 38.5024L158.1056 81.92zM0 715.9808l38.0928 45.4656L116.736 696.32 0 715.9808z" fill="#FF4A4A" p-id="14363"></path></svg>