<?xml version="1.0" standalone="no"?><!DOCTYPE svg PUBLIC "-//W3C//DTD SVG 1.1//EN" "http://www.w3.org/Graphics/SVG/1.1/DTD/svg11.dtd"><svg t="1533522625557" class="icon" style="" viewBox="0 0 1024 1024" version="1.1" xmlns="http://www.w3.org/2000/svg" p-id="1408" xmlns:xlink="http://www.w3.org/1999/xlink" width="32" height="32"><defs><style type="text/css"></style></defs><path d="M42.131096 23.118447l618.279757 0 0 816.543561-618.279757 0 0-816.543561Z" fill="#EBE5DF" p-id="1409"></path><path d="M604.926579 862.780456H97.61537A78.695195 78.695195 0 0 1 19.012649 784.177735V78.602721A78.695195 78.695195 0 0 1 97.61537 0h507.311209a78.695195 78.695195 0 0 1 78.602721 78.602721v705.575014a78.695195 78.695195 0 0 1-78.602721 78.602721zM97.61537 46.236895A32.365826 32.365826 0 0 0 65.249544 78.602721v705.575014a32.365826 32.365826 0 0 0 32.365826 32.365826h507.311209a32.365826 32.365826 0 0 0 32.365826-32.365826V78.602721a32.365826 32.365826 0 0 0-32.365826-32.365826z" fill="#666666" p-id="1410"></path><path d="M42.131096 121.510559h618.279757" fill="#FFFFFF" p-id="1411"></path><path d="M660.410853 144.629007H42.131096a23.118447 23.118447 0 0 1 0-46.236895h618.279757a23.118447 23.118447 0 0 1 0 46.236895z" fill="#666666" p-id="1412"></path><path d="M559.244527 32.365826v61.402597" fill="#FFFFFF" p-id="1413"></path><path d="M559.244527 116.88687a23.025974 23.025974 0 0 1-23.118447-23.118447V32.365826a23.118447 23.118447 0 0 1 46.236894 0v61.402597a23.118447 23.118447 0 0 1-23.118447 23.118447z" fill="#666666" p-id="1414"></path><path d="M419.424157 32.365826v61.402597" fill="#FFFFFF" p-id="1415"></path><path d="M419.424157 116.88687a23.118447 23.118447 0 0 1-23.118447-23.118447V32.365826a23.118447 23.118447 0 0 1 46.236895 0v61.402597a23.118447 23.118447 0 0 1-23.118448 23.118447z" fill="#666666" p-id="1416"></path><path d="M279.696262 32.365826v61.402597" fill="#FFFFFF" p-id="1417"></path><path d="M279.696262 116.88687a23.118447 23.118447 0 0 1-23.118448-23.118447V32.365826a23.118447 23.118447 0 0 1 46.236895 0v61.402597a23.118447 23.118447 0 0 1-23.118447 23.118447z" fill="#666666" p-id="1418"></path><path d="M139.968366 32.365826v61.402597" fill="#FFFFFF" p-id="1419"></path><path d="M139.968366 116.88687a23.025974 23.025974 0 0 1-23.118448-23.118447V32.365826a23.118447 23.118447 0 1 1 46.236895 0v61.402597a23.118447 23.118447 0 0 1-23.118447 23.118447z" fill="#666666" p-id="1420"></path><path d="M595.864148 795.644485v44.017523" fill="#FFFFFF" p-id="1421"></path><path d="M595.864148 862.780456a23.118447 23.118447 0 0 1-23.118448-23.118448V795.274589a23.118447 23.118447 0 1 1 46.236895 0v44.387419a23.118447 23.118447 0 0 1-23.118447 23.118448z" fill="#666666" p-id="1422"></path><path d="M525.953963 795.644485v44.017523" fill="#FFFFFF" p-id="1423"></path><path d="M525.953963 862.780456a23.118447 23.118447 0 0 1-23.118447-23.118448V795.274589a23.118447 23.118447 0 0 1 46.236894 0v44.387419a23.025974 23.025974 0 0 1-23.118447 23.118448z" fill="#666666" p-id="1424"></path><path d="M456.136252 795.644485v44.017523" fill="#FFFFFF" p-id="1425"></path><path d="M456.136252 862.780456a23.118447 23.118447 0 0 1-23.118448-23.118448V795.274589a23.118447 23.118447 0 0 1 46.236895 0v44.387419a23.118447 23.118447 0 0 1-23.118447 23.118448z" fill="#666666" p-id="1426"></path><path d="M331.296636 502.779993c82.579094 36.989516 164.048503 8.600062 201.777809-58.998277 32.550774-58.258487 25.707713-110.968547-1.849476-132.699888a56.871381 56.871381 0 0 0-42.168048-12.761383" fill="#F98003" p-id="1427"></path><path d="M404.720825 542.081354a203.442337 203.442337 0 0 1-83.226411-18.494758 23.118447 23.118447 0 1 1 18.494758-42.260522c68.33813 30.238929 138.710684 9.987169 172.27867-49.196056 26.817399-47.993897 22.101236-89.052259 3.976373-103.293223a34.585197 34.585197 0 0 0-24.41308-8.045219 23.118447 23.118447 0 0 1-6.843061-45.682052 79.250038 79.250038 0 0 1 59.923016 17.385072c40.133625 31.71851 43.370207 98.392112 7.675324 162.199027a166.452821 166.452821 0 0 1-147.865589 87.387731z" fill="#666666" p-id="1428"></path><path d="M361.16567 387.372704c43.832576-11.929119 128.168672-89.052259 128.168672-89.052259s-54.929431 156.373178-144.259111 195.859486c-82.579094 36.989516-163.956029 8.600062-201.777809-58.998278-32.550774-58.258487-25.707713-110.968547 1.94195-132.699888 21.731341-17.107651 60.940227-14.795806 86.278045 16.645282 21.453919 26.539978 74.163979 83.226411 129.648253 68.245657z" fill="#F98003" p-id="1429"></path><path d="M271.743516 533.573765a167.100138 167.100138 0 0 1-148.60538-87.110309c-35.602409-63.806915-32.4583-130.480517 7.767798-162.106553 30.053982-23.765764 83.966201-22.748552 118.643872 20.251759 17.662494 21.916288 63.344546 71.759661 105.235173 60.385385 27.742137-7.582851 87.665152-55.484274 118.736345-83.226411a23.118447 23.118447 0 0 1 36.989516 24.690502c-2.311845 6.750587-59.090751 166.452821-156.373178 209.36066a204.367075 204.367075 0 0 1-82.394146 17.754967zM177.882619 315.058201a30.423877 30.423877 0 0 0-18.494758 5.548427c-18.032389 14.240964-22.748552 55.484274 4.068847 103.293223 33.013143 59.275699 103.848066 79.434985 172.186196 49.196056 36.989516-16.182913 67.228445-55.484274 89.699576-94.230792a218.330617 218.330617 0 0 1-58.535909 30.793772c-48.548739 13.223752-103.108275-13.778595-153.598964-76.013455a46.236895 46.236895 0 0 0-35.324988-18.587231zM361.16567 387.372704z" fill="#666666" p-id="1430"></path><path d="M625.825656 734.426836c44.294945 9.894695 154.893597-19.234548 154.893597-19.234548S659.671062 828.195258 562.203688 821.722093C472.134217 815.711297 412.950992 753.106541 410.916569 675.70598c-1.757002-66.766076 28.851822-110.228757 63.344546-116.609449 27.187294-5.086058 60.940227 15.258175 68.708025 54.836957 6.658113 33.383038 26.632451 108.009386 82.856516 120.493348z" fill="#FAB952" p-id="1431"></path><path d="M570.156434 845.117962h-9.247379c-99.31685-6.658113-170.33672-75.920981-172.833512-168.487245C385.948646 603.299002 419.701579 545.595358 470.00732 536.347979c37.729306-7.028008 84.983413 18.494758 95.710372 73.054294 5.455954 27.742137 22.748552 93.028632 64.731653 102.460958 28.29698 6.288218 103.293223-8.322641 143.98169-19.0496a23.118447 23.118447 0 0 1 21.638867 39.30136c-4.716163 4.716163-121.880455 113.002971-225.913468 113.002971z m-87.572678-263.642774a29.129244 29.129244 0 0 0-4.068847 0c-22.656078 4.253794-46.236895 38.376623-44.479893 93.398527 1.757002 67.783288 55.484274 118.551398 129.463305 123.544983 38.284149 2.496792 83.873727-17.754968 122.99014-41.705679a217.313405 217.313405 0 0 1-65.933811 0c-49.196056-10.911907-84.890939-60.200437-100.426536-138.710684-4.808637-24.967923-23.67329-36.527147-37.544358-36.527147z" fill="#666666" p-id="1432"></path><path d="M633.408506 699.749165c-43.370207 13.316226-155.910809-7.120482-155.910809-7.120482s129.463305 103.293223 226.190889 89.237207c89.329681-13.038804 143.334374-80.082302 139.358001-157.205442-3.42153-66.673602-36.989516-107.639491-72.22203-110.968548-27.742137-2.959161-59.55312 19.974339-64.731652 60.01549-3.514004 33.290564-17.662494 109.211545-72.684399 126.041775z" fill="#FAB952" p-id="1433"></path><path d="M684.823933 806.27897c-101.073852 0-216.851036-91.364104-221.937095-95.525424a23.118447 23.118447 0 0 1 18.494758-40.873415c41.335784 7.490377 117.349239 16.182913 144.998902 7.767798 41.520731-12.668909 53.634798-79.250038 56.963855-107.177122 6.473165-54.836957 51.507901-84.42857 89.699575-80.359723 50.860584 5.455954 89.052259 60.200437 92.47379 133.162257 4.808637 92.473789-60.662806 167.100138-159.147392 181.433575a156.465652 156.465652 0 0 1-21.546393 1.572054z m-110.968547-79.342511c39.486308 20.436707 86.647941 37.729306 126.134249 31.995931C774.246088 748.205431 823.534617 693.553421 820.020613 625.677659c-2.866687-54.929431-28.759349-87.11031-51.970269-89.32968-14.14849-1.387107-35.509935 11.46675-38.931466 39.763729-9.247379 79.434985-41.058363 131.220307-89.32968 146.016114a216.851036 216.851036 0 0 1-65.933812 4.808637z" fill="#666666" p-id="1434"></path><path d="M496.454824 736.831154c-39.116413 11.929119-97.467374 0-97.467374 0s73.979032 86.925362 160.904394 73.979032c80.637144-11.744171 129.463305-72.22203 125.764353-142.039741-3.144109-60.200437-33.660459-97.097479-64.731652-100.426535-24.782976-2.68174-53.727272 17.939915-57.981066 54.097167C558.874632 653.142375 546.113249 721.295558 496.454824 736.831154z" fill="#FAB952" p-id="1435"></path><path d="M542.22935 835.223266c-88.867312 0-157.760285-79.897354-160.81192-83.22641a23.025974 23.025974 0 0 1 22.286183-37.544359c14.610859 2.959161 58.720856 9.247379 86.000624 0.647317 36.157252-11.46675 47.161633-70.465028 49.843373-95.525425 6.010796-50.860584 47.901423-78.140352 83.22641-74.4414 46.976685 4.993585 82.301673 55.484274 85.723203 122.25035 4.438742 84.705991-55.484274 152.951648-145.461271 166.452821a148.512906 148.512906 0 0 1-20.806602 1.387106z m-73.979032-70.465027c24.690502 15.443123 55.946643 27.742137 88.682364 23.210921 66.488655-9.247379 109.119072-57.056328 105.974963-117.904082-2.496792-48.271318-24.782976-76.568298-44.479893-78.695194-11.836645-1.202159-29.77656 9.802222-32.643247 33.93788-8.507589 72.499451-37.729306 120.215926-82.209199 133.624626a156.650599 156.650599 0 0 1-35.694883 5.825849z m28.574401-27.742137z" fill="#666666" p-id="1436"></path><path d="M770.269715 775.855094c-43.370207 13.223752-155.910809-7.120482-155.910809-7.120482s129.463305 103.293223 226.190889 89.237207c89.329681-13.038804 143.334374-80.082302 139.358-157.205442-3.42153-66.673602-36.989516-107.639491-72.222029-110.968548-27.742137-2.959161-59.55312 19.881865-64.269284 60.01549-3.976373 33.290564-18.124863 109.211545-73.146767 126.041775z" fill="#FAB952" p-id="1437"></path><path d="M822.055037 882.384899c-101.073852 0-216.851036-91.364104-221.937095-95.525424a23.118447 23.118447 0 0 1 18.494758-40.873415c41.335784 7.490377 117.349239 16.182913 144.998902 7.767798 41.520731-12.668909 53.634798-79.250038 56.963854-107.177122 6.473165-54.836957 51.600375-84.42857 89.699576-80.359723 50.860584 5.455954 89.052259 60.200437 92.473789 133.162257 4.808637 92.473789-60.662806 167.100138-159.239865 181.433575a154.153807 154.153807 0 0 1-21.453919 1.572054z m-110.968548-79.342511c39.486308 20.436707 86.647941 37.82178 126.134249 31.995931 73.979032-10.72696 123.082614-65.563917 119.661084-133.254731-2.866687-54.929431-28.759349-87.11031-51.600375-89.607102-14.14849-1.387107-35.509935 11.46675-38.931465 39.76373-9.247379 79.434985-41.058363 131.220307-89.329681 146.016113a216.851036 216.851036 0 0 1-65.933812 5.086059z m59.183226-27.187294z" fill="#666666" p-id="1438"></path><path d="M765.368604 1000.381454a302.85166 302.85166 0 0 0 216.018772-290.090277V665.811284H376.146424v44.942262A302.85166 302.85166 0 0 0 592.350144 1000.381454" fill="#BFAB90" p-id="1439"></path><path d="M592.350144 1023.499902a23.580816 23.580816 0 0 1-6.658113-0.924738 327.819584 327.819584 0 0 1-232.664054-312.283987V665.811284a23.118447 23.118447 0 0 1 23.118447-23.118447h605.240952a23.118447 23.118447 0 0 1 23.118447 23.118447v44.942262a327.819584 327.819584 0 0 1-232.479106 312.283987 23.118447 23.118447 0 0 1-13.223752-44.757314 281.305268 281.305268 0 0 0 199.465964-268.17399v-21.638866H399.264871v21.823814a281.305268 281.305268 0 0 0 199.465964 268.173989 23.118447 23.118447 0 0 1-6.565639 45.219683z" fill="#666666" p-id="1440"></path><path d="M592.165196 991.134075h173.203408" fill="#FFFFFF" p-id="1441"></path><path d="M765.368604 1014.252523H592.350144a23.118447 23.118447 0 1 1 0-46.236895h173.01846a23.118447 23.118447 0 0 1 0 46.236895z" fill="#666666" p-id="1442"></path></svg>