<?xml version="1.0" standalone="no"?><!DOCTYPE svg PUBLIC "-//W3C//DTD SVG 1.1//EN" "http://www.w3.org/Graphics/SVG/1.1/DTD/svg11.dtd"><svg t="1533522548061" class="icon" style="" viewBox="0 0 1024 1024" version="1.1" xmlns="http://www.w3.org/2000/svg" p-id="1114" xmlns:xlink="http://www.w3.org/1999/xlink" width="32" height="32"><defs><style type="text/css"></style></defs><path d="M389.433927 324.012493a19.734308 19.734308 0 0 1-4.720756-0.619116c-19.579529-4.875535-37.069543-44.808487-40.939015-71.275676a84.586661 84.586661 0 0 1 41.867688-90.003922c53.321326-31.574893 38.694721-138.294934 38.694721-139.300997a19.347361 19.347361 0 1 1 38.230385-5.881597c0.851284 5.417261 19.42475 133.26462-56.95863 178.537444a44.266761 44.266761 0 0 0-23.681169 34.747859 89.539585 89.539585 0 0 0 17.412624 57.732524 19.42475 19.42475 0 0 1-9.67368 36.14087z m4.643366-38.152995zM486.557677 290.193306a19.50214 19.50214 0 0 1-9.131954-2.321683c-13.85271-7.738944-26.31241-29.253209-29.098431-50.922253a64.465406 64.465406 0 0 1 20.276034-57.036019c18.263908-16.948288 24.068117-47.904065 24.145506-48.445791a19.347361 19.347361 0 0 1 38.152996 6.500713c0 1.857347-7.738944 44.653708-36.14087 70.501782a24.455064 24.455064 0 0 0-8.28067 20.198644 42.409414 42.409414 0 0 0 9.828459 25.461127 19.347361 19.347361 0 0 1-9.75107 36.06348z m9.905849-35.908701z m-0.773895-0.541726zM548.62401 336.626972a19.347361 19.347361 0 0 1-9.209344-36.373038c6.345934-3.482525 20.353423-14.162268 20.353424-23.216833 0-16.948288-19.037803-34.593081-25.770685-39.391226a19.347361 19.347361 0 0 1 22.675107-31.420114c4.256419 3.095578 41.945078 31.420114 41.790299 71.043508 0 34.206134-36.527817 54.791725-40.706847 57.03602a19.269971 19.269971 0 0 1-9.131954 2.321683z" fill="#666666" p-id="1115"></path><path d="M799.597972 450.157284h-162.517829a92.867331 92.867331 0 0 0-92.867331 92.867331V665.996439a92.867331 92.867331 0 0 0 92.867331 92.867331h162.517829a92.867331 92.867331 0 0 0 92.867331-92.867331V543.024615a92.867331 92.867331 0 0 0-92.867331-92.867331z m37.920827 211.737515a46.433665 46.433665 0 0 1-46.433666 46.433665H645.438202a46.433665 46.433665 0 0 1-46.433665-46.433665l-2.012126-111.440798a46.433665 46.433665 0 0 1 46.433666-46.433665h145.646931a46.433665 46.433665 0 0 1 46.433665 46.433665z" fill="#BFAB90" p-id="1116"></path><path d="M799.597972 778.28852h-162.517829A112.36947 112.36947 0 0 1 524.633283 665.996439V543.024615a112.36947 112.36947 0 0 1 112.214691-112.214692h162.51783a112.292081 112.292081 0 0 1 112.214691 112.214692V665.996439a112.36947 112.36947 0 0 1-111.982523 112.292081z m-162.517829-308.783875a73.674749 73.674749 0 0 0-73.519971 73.51997V665.996439a73.674749 73.674749 0 0 0 73.519971 73.51997h162.517829a73.59736 73.59736 0 0 0 73.51997-73.51997V543.024615a73.59736 73.59736 0 0 0-73.51997-73.51997zM791.085133 727.907993H645.438202a65.858416 65.858416 0 0 1-65.781026-65.781026l-2.012125-111.05385a65.935805 65.935805 0 0 1 65.781026-66.167973h145.646931a65.858416 65.858416 0 0 1 65.781026 65.781026l2.012125 111.05385a65.858416 65.858416 0 0 1-65.781026 66.167973zM643.426077 523.367697a27.086305 27.086305 0 0 0-27.086305 27.086304l2.012126 111.05385a27.163694 27.163694 0 0 0 27.086304 27.705421h145.646931a27.163694 27.163694 0 0 0 27.086305-26.931526L816.314092 550.840949a27.163694 27.163694 0 0 0-27.086305-27.473252z" fill="#666666" p-id="1117"></path><path d="M186.36403 379.655502h534.993216a23.216833 23.216833 0 0 1 23.216832 23.216833v486.005698a46.433665 46.433665 0 0 1-46.433665 46.433666H209.580862a46.433665 46.433665 0 0 1-46.433665-46.433666V402.872335a23.216833 23.216833 0 0 1 23.216833-23.216833z" fill="#BFAB90" p-id="1118"></path><path d="M698.140413 954.813838H209.580862a65.858416 65.858416 0 0 1-65.781026-65.781026V402.872335a42.641583 42.641583 0 0 1 42.564194-42.564194h534.993216a42.641583 42.641583 0 0 1 42.564193 42.564194v486.005698a65.858416 65.858416 0 0 1-65.781026 65.935805zM186.36403 399.157641a3.869472 3.869472 0 0 0-3.869473 3.869472v486.005699a27.086305 27.086305 0 0 0 27.086305 27.086305h488.559551a27.086305 27.086305 0 0 0 27.086305-27.086305V402.872335a3.869472 3.869472 0 0 0-3.869472-3.869473z" fill="#666666" p-id="1119"></path><path d="M128.863674 1007.129102h672.127308" fill="#FFFFFF" p-id="1120"></path><path d="M800.836203 1024H128.863674a16.870898 16.870898 0 0 1 0-33.664407H800.836203a16.870898 16.870898 0 0 1 0 33.664407z" fill="#666666" p-id="1121"></path><path d="M388.142075 700.42645a101.612338 73.51997 45 1 0 103.97294-103.972939 101.612338 73.51997 45 1 0-103.97294 103.972939Z" fill="#8C7051" p-id="1122"></path><path d="M468.0616 756.15514a136.128029 136.128029 0 0 1-93.641225-42.099857c-47.20756-47.13017-56.107346-115.000712-19.889087-151.218971A83.657987 83.657987 0 0 1 429.366879 541.708994a142.783521 142.783521 0 0 1 76.615548 41.016405 142.783521 142.783521 0 0 1 41.016405 76.615548 83.890156 83.890156 0 0 1-21.127318 74.603423A79.711126 79.711126 0 0 1 468.0616 756.15514z m-55.720398-177.144434a41.790299 41.790299 0 0 0-30.336662 11.221469 45.891939 45.891939 0 0 0-10.292796 41.016404 103.392295 103.392295 0 0 0 30.104494 55.410841c31.574893 31.574893 75.764264 40.629457 96.504634 19.889087a45.891939 45.891939 0 0 0 10.292796-41.016405 103.082737 103.082737 0 0 0-30.181882-55.41084 103.082737 103.082737 0 0 0-55.410841-30.181883 65.007132 65.007132 0 0 0-10.679743-0.928673z" fill="#666666" p-id="1123"></path><path d="M368.306609 576.534244s77.389442 5.107703 70.501782 54.791725c-7.351997 52.392653 17.567403 99.445434 64.078458 96.582024" fill="#8C7051" p-id="1124"></path><path d="M498.553041 747.023185a72.978244 72.978244 0 0 1-54.17261-23.216832c-20.585592-22.055991-29.717546-57.500356-24.532453-94.879457a16.63873 16.63873 0 0 0-3.482525-14.084878C406.150046 602.150149 378.754184 596.345941 367.455325 595.881604a19.347361 19.347361 0 0 1 2.476462-38.694721c5.417261 0 53.398715 4.256419 76.615548 32.813123a55.797788 55.797788 0 0 1 11.840585 43.957204c-3.637304 25.461127 1.934736 49.684022 14.394436 63.149785a34.825249 34.825249 0 0 0 29.17582 11.06669 19.347361 19.347361 0 0 1 2.708631 38.694721z" fill="#666666" p-id="1125"></path></svg>