<?xml version="1.0" standalone="no"?><!DOCTYPE svg PUBLIC "-//W3C//DTD SVG 1.1//EN" "http://www.w3.org/Graphics/SVG/1.1/DTD/svg11.dtd"><svg t="1533522605264" class="icon" style="" viewBox="0 0 1113 1024" version="1.1" xmlns="http://www.w3.org/2000/svg" p-id="1260" xmlns:xlink="http://www.w3.org/1999/xlink" width="32" height="32"><defs><style type="text/css"></style></defs><path d="M407.033759 988.177881a413.835034 413.835034 0 1 1 540.466227 0 55.166064 55.166064 0 0 1-35.82212 13.343739H442.855879a54.897398 54.897398 0 0 1-35.82212-13.343739z" fill="#EBE5DF" p-id="1261"></path><path d="M911.767422 1024H442.855879a77.286223 77.286223 0 0 1-50.509189-18.896168 436.223859 436.223859 0 1 1 569.750809 0 77.017557 77.017557 0 0 1-50.330077 18.896168zM677.401205 283.288126h-15.851287a391.535765 391.535765 0 0 0-239.918645 687.695137 32.687684 32.687684 0 0 0 21.224606 7.970422h468.911543a32.419018 32.419018 0 0 0 21.13505-7.970422 391.44621 391.44621 0 0 0-255.501267-687.695137z" fill="#666666" p-id="1262"></path><path d="M938.096679 261.167968H245.11778a52.56896 52.56896 0 0 0-42.359656 20.060386 23.642599 23.642599 0 0 0-1.970217 2.86577L28.662623 582.134157a46.120979 46.120979 0 0 0 16.836396 62.688709 46.210534 46.210534 0 0 0 62.688709-16.836396l153.945558-266.068792a17.91106 17.91106 0 0 1 15.134846-8.955529h660.828547z" fill="#8C7051" p-id="1263"></path><path d="M68.335621 673.659672A68.509803 68.509803 0 0 1 9.050013 571.118856l172.125284-298.219144a52.837626 52.837626 0 0 1 3.492656-5.194208 75.316006 75.316006 0 0 1 60.270716-29.015916h692.9789a22.388825 22.388825 0 0 1 22.388824 22.388824v92.152402a22.388825 22.388825 0 0 1-22.388824 22.388825H280.133901l-152.244007 263.919465a68.688914 68.688914 0 0 1-59.464718 34.120568z m176.782159-390.192435a30.180136 30.180136 0 0 0-24.448597 11.194412L48.006568 593.50768a23.642599 23.642599 0 0 0 41.016327 23.642599L242.789342 350.723266a39.941663 39.941663 0 0 1 34.926566-19.881276h638.439723v-47.374753z" fill="#666666" p-id="1264"></path><path d="M447.870975 260.899302v-84.808868a26.86659 26.86659 0 0 1 19.523056-25.881481l452.254257-127.258079a13.343739 13.343739 0 0 1 17.015507 14.060182l-18.806613 223.888246z" fill="#EBE5DF" p-id="1265"></path><path d="M917.588516 283.467237L447.870975 283.288126a22.299269 22.299269 0 0 1-22.388824-22.388824v-84.808868a49.344969 49.344969 0 0 1 35.822119-47.374753L913.558528 1.368047a35.822119 35.822119 0 0 1 45.494091 37.52367l-18.896168 223.888246a22.299269 22.299269 0 0 1-22.567935 20.687274z m-447.776492-44.777649h426.999663l16.030398-190.752786-439.62696 123.854978a4.38821 4.38821 0 0 0-3.223991 4.298654z" fill="#666666" p-id="1266"></path><path d="M781.733128 159.164483h144.363141" fill="#FFFFFF" p-id="1267"></path><path d="M926.096269 181.553307H781.733128a22.388825 22.388825 0 0 1 0-44.777649h144.363141a22.388825 22.388825 0 0 1 0 44.777649zM897.70724 950.4751a22.388825 22.388825 0 0 1-14.507959-39.493887c2.417993-2.059772 5.373318-4.209099 8.95553-6.806202 26.150147-19.4335 87.405971-65.017147 87.316416-224.96291 0-112.929231-96.092835-205.977186-97.077943-206.783184a22.388825 22.388825 0 0 1 31.165244-32.419018c4.56732 4.298654 110.779904 107.466358 110.959014 239.112647 0 182.513698-73.793566 237.500652-105.317031 260.964139-2.597104 1.970217-4.925541 3.582212-6.716647 5.104652a22.030603 22.030603 0 0 1-14.776624 5.283763z" fill="#666666" p-id="1268"></path><path d="M1091.146684 674.734336a413.208147 413.208147 0 0 1-143.288477 313.443545 55.166064 55.166064 0 0 1-35.82212 13.343739H442.855879a54.539177 54.539177 0 0 1-35.82212-13.343739 412.849926 412.849926 0 0 1-143.288477-313.443545s71.644239-10.388415 117.675662-6.627092 89.555298 8.95553 144.810918 8.95553c71.644239 0 123.675867-8.95553 192.543891-7.43309 49.434525 1.074664 164.065307 5.731539 219.589592 2.955325 47.822529-2.238882 152.781339-12.269076 153.050005 8.239087z" fill="#F98003" p-id="1269"></path><path d="M911.767422 1024H442.855879a77.465333 77.465333 0 0 1-50.419633-18.806613 436.223859 436.223859 0 0 1-151.348455-330.459051 22.388825 22.388825 0 0 1 19.164834-22.120159c2.955325-0.447776 74.689119-10.746636 122.780314-6.806202l28.209919 2.507548c35.822119 3.134435 71.644239 6.447981 114.720338 6.447981 32.95635 0 62.151377-1.970217 90.450851-3.940433 32.060797-2.149327 65.106702-4.38821 102.540817-3.582212l43.076099 1.164219c56.151172 1.611995 133.079174 3.940433 174.901497 1.880661 6.985313 0 15.04529-0.805998 23.911265-1.432884 70.390465-4.298654 109.436575-4.835986 130.929847 3.492656a22.388825 22.388825 0 0 1 21.761937 22.388825V680.644986a13.254184 13.254184 0 0 1 0 1.880661 435.865638 435.865638 0 0 1-151.348454 322.399074 77.017557 77.017557 0 0 1-50.419633 19.075279zM286.671438 694.436502a391.087988 391.087988 0 0 0 135.407612 276.815427 32.419018 32.419018 0 0 0 21.13505 7.970422h468.553322a32.419018 32.419018 0 0 0 21.13505-7.970422 391.44621 391.44621 0 0 0 135.497167-279.05431c-22.567935-3.671767-78.987773 0-104.869255 1.34333-8.95553 0.626887-17.284173 1.074664-24.359041 1.432884-43.61343 2.149327-121.52654 0-178.48371-1.791106l-42.628322-1.164218c-35.822119-0.716442-66.181366 1.343329-98.510828 3.492656-28.926361 1.970217-58.927386 4.029988-93.406177 4.029989-44.777649 0-82.390875-3.403101-118.750325-6.627092-8.95553-0.895553-18.537947-1.701551-27.851698-2.417994a544.406659 544.406659 0 0 0-92.868845 3.940434z" fill="#666666" p-id="1270"></path><path d="M958.783953 789.096452H922.514057a22.388825 22.388825 0 0 1 0-44.777649h36.538562a22.388825 22.388825 0 0 1 0 44.777649z" fill="#666666" p-id="1271"></path><path d="M940.425117 804.320853a22.388825 22.388825 0 0 1-22.388825-22.388825v-33.851903a22.388825 22.388825 0 0 1 44.77765 0v33.851903a22.388825 22.388825 0 0 1-22.388825 22.388825zM862.153786 893.51793h-36.538562a22.388825 22.388825 0 0 1 0-44.777649h36.538562a22.388825 22.388825 0 0 1 0 44.777649z" fill="#666666" p-id="1272"></path><path d="M843.884505 908.742331a22.388825 22.388825 0 0 1-22.388824-22.388825V852.591159a22.388825 22.388825 0 0 1 44.777649 0V886.622172a22.388825 22.388825 0 0 1-22.388825 22.120159z" fill="#666666" p-id="1273"></path></svg>