<?xml version="1.0" standalone="no"?><!DOCTYPE svg PUBLIC "-//W3C//DTD SVG 1.1//EN" "http://www.w3.org/Graphics/SVG/1.1/DTD/svg11.dtd"><svg t="1533522639182" class="icon" style="" viewBox="0 0 1024 1024" version="1.1" xmlns="http://www.w3.org/2000/svg" p-id="1577" xmlns:xlink="http://www.w3.org/1999/xlink" width="32" height="32"><defs><style type="text/css"></style></defs><path d="M160.311933 253.418487l703.376134 0 0 749.068908-703.376134 0 0-749.068908Z" fill="#EBE5DF" p-id="1578"></path><path d="M812.057815 1024H211.942185a73.228908 73.228908 0 0 1-73.142857-73.142857v-645.378151A73.228908 73.228908 0 0 1 211.942185 232.336134h600.11563a73.228908 73.228908 0 0 1 73.142857 73.142858v645.378151a73.228908 73.228908 0 0 1-73.142857 73.142857zM211.942185 275.361345A30.117647 30.117647 0 0 0 181.824538 305.048739v645.808404a30.117647 30.117647 0 0 0 30.117647 30.117647h600.11563a30.117647 30.117647 0 0 0 30.117647-30.117647v-645.378151a30.117647 30.117647 0 0 0-30.117647-30.117647z" fill="#666666" p-id="1579"></path><path d="M483.861513 88.11563V56.965378a33.473613 33.473613 0 0 1 30.80605-35.452773 33.473613 33.473613 0 0 1 30.80605 35.452773v31.150252" fill="#EBE5DF" p-id="1580"></path><path d="M545.473613 109.628235a21.512605 21.512605 0 0 1-21.512605-21.512605V56.965378c0-8.002689-4.904874-13.940168-9.293445-13.940168s-9.293445 5.937479-9.293445 13.940168v31.150252a21.512605 21.512605 0 1 1-43.02521 0V56.965378A54.900168 54.900168 0 0 1 514.667563 0a54.900168 54.900168 0 0 1 52.318655 56.965378v31.150252a21.512605 21.512605 0 0 1-21.512605 21.512605z" fill="#666666" p-id="1581"></path><path d="M219.514622 174.682353h589.531428v78.736134H219.514622z" fill="#EBE5DF" p-id="1582"></path><path d="M809.04605 275.361345H219.514622a21.512605 21.512605 0 0 1-21.512605-21.512606v-79.166386a21.512605 21.512605 0 0 1 21.512605-21.512605h589.531428a21.512605 21.512605 0 0 1 21.512605 21.512605v78.736134a21.512605 21.512605 0 0 1-21.512605 21.942858z m-567.932773-43.025211h546.420168v-36.141176H241.027227z" fill="#666666" p-id="1583"></path><path d="M822.469916 170.810084c0-45.692773-137.680672-82.694454-308.146555-82.694454s-308.232605 37.001681-308.232605 82.694454v3.872269h616.37916z" fill="#EBE5DF" p-id="1584"></path><path d="M822.469916 196.194958H206.090756a21.512605 21.512605 0 0 1-21.512605-21.512605v-3.872269c0-71.59395 170.896134-104.207059 329.74521-104.207059S844.412773 99.216134 844.412773 170.810084v3.872269a21.512605 21.512605 0 0 1-21.942857 21.512605z m-575.247059-43.02521h534.114958c-37.604034-19.619496-129.07563-43.541513-266.756302-43.541513S285.085042 133.550252 247.222857 153.169748z" fill="#666666" p-id="1585"></path><path d="M374.74958 880.898151m-114.877311 0a114.877311 114.877311 0 1 0 229.754622 0 114.877311 114.877311 0 1 0-229.754622 0Z" fill="#8C7051" p-id="1586"></path><path d="M374.74958 1008.683025a127.870924 127.870924 0 1 1 127.784874-127.784874 127.956975 127.956975 0 0 1-127.784874 127.784874z m0-229.840672a102.055798 102.055798 0 1 0 101.969748 102.055798 102.141849 102.141849 0 0 0-101.969748-102.055798z" fill="#666666" p-id="1587"></path><path d="M316.751597 860.848403h26.159327" fill="#8C7051" p-id="1588"></path><path d="M342.910924 870.744202h-25.815126a9.895798 9.895798 0 0 1 0-19.791597h25.815126a9.895798 9.895798 0 0 1 0 19.791597z" fill="#666666" p-id="1589"></path><path d="M329.831261 847.682689v24.868572" fill="#8C7051" p-id="1590"></path><path d="M329.831261 882.447059a9.809748 9.809748 0 0 1-9.895799-9.895798v-24.868572a9.895798 9.895798 0 0 1 19.791597 0v24.868572a9.809748 9.809748 0 0 1-9.895798 9.895798z" fill="#666666" p-id="1591"></path><path d="M368.037647 922.030252h26.159328" fill="#8C7051" p-id="1592"></path><path d="M394.196975 931.92605h-25.815126a9.895798 9.895798 0 0 1 0-19.791596h25.815126a9.895798 9.895798 0 1 1 0 19.791596z" fill="#666666" p-id="1593"></path><path d="M381.117311 908.864538v24.868571" fill="#8C7051" p-id="1594"></path><path d="M381.117311 943.628908a9.895798 9.895798 0 0 1-9.981849-9.895799v-24.868571a9.895798 9.895798 0 0 1 19.791597 0v24.868571a9.809748 9.809748 0 0 1-9.809748 9.895799z" fill="#666666" p-id="1595"></path><path d="M406.416134 856.287731h26.159328" fill="#8C7051" p-id="1596"></path><path d="M432.575462 866.183529h-25.815126a9.895798 9.895798 0 0 1 0-19.791596h25.815126a9.895798 9.895798 0 1 1 0 19.791596z" fill="#666666" p-id="1597"></path><path d="M419.495798 843.122017v24.868571" fill="#8C7051" p-id="1598"></path><path d="M419.495798 877.714286a9.809748 9.809748 0 0 1-9.895798-9.895799V843.294118a9.895798 9.895798 0 0 1 19.791597 0v24.868571a9.895798 9.895798 0 0 1-9.895799 9.551597z" fill="#666666" p-id="1599"></path><path d="M656.220504 880.898151m-114.877311 0a114.877311 114.877311 0 1 0 229.754622 0 114.877311 114.877311 0 1 0-229.754622 0Z" fill="#8C7051" p-id="1600"></path><path d="M656.220504 1008.683025A127.870924 127.870924 0 1 1 784.177479 880.898151a128.043025 128.043025 0 0 1-127.956975 127.784874z m0-229.840672A102.055798 102.055798 0 1 0 758.362353 880.898151a102.141849 102.141849 0 0 0-102.141849-102.055798z" fill="#666666" p-id="1601"></path><path d="M598.136471 860.848403h26.245378" fill="#8C7051" p-id="1602"></path><path d="M624.295798 870.744202h-25.815126a9.895798 9.895798 0 0 1 0-19.791597h25.815126a9.895798 9.895798 0 0 1 0 19.791597z" fill="#666666" p-id="1603"></path><path d="M611.216134 847.682689v24.868572" fill="#8C7051" p-id="1604"></path><path d="M611.216134 882.447059a9.895798 9.895798 0 0 1-9.895798-9.895798v-24.868572a9.895798 9.895798 0 1 1 19.791597 0v24.868572a9.809748 9.809748 0 0 1-9.895799 9.895798z" fill="#666666" p-id="1605"></path><path d="M649.508571 922.030252h26.159328" fill="#8C7051" p-id="1606"></path><path d="M675.667899 931.92605h-25.815126a9.895798 9.895798 0 0 1 0-19.791596h25.815126a9.895798 9.895798 0 0 1 0 19.791596z" fill="#666666" p-id="1607"></path><path d="M662.588235 908.864538v24.868571" fill="#8C7051" p-id="1608"></path><path d="M662.588235 943.628908a9.809748 9.809748 0 0 1-9.895798-9.895799v-24.868571a9.895798 9.895798 0 1 1 19.791597 0v24.868571a9.895798 9.895798 0 0 1-9.895799 9.895799z" fill="#666666" p-id="1609"></path><path d="M687.801008 856.287731h26.159328" fill="#8C7051" p-id="1610"></path><path d="M713.960336 866.183529h-25.815126a9.895798 9.895798 0 0 1 0-19.791596h25.815126a9.895798 9.895798 0 0 1 0 19.791596z" fill="#666666" p-id="1611"></path><path d="M700.880672 843.122017v24.868571" fill="#8C7051" p-id="1612"></path><path d="M700.880672 877.714286a9.895798 9.895798 0 0 1-9.895798-9.895799V843.294118a9.895798 9.895798 0 1 1 19.791597 0v24.868571a9.809748 9.809748 0 0 1-9.895799 9.551597z" fill="#666666" p-id="1613"></path><path d="M515.442017 681.347227m-114.877311 0a114.877311 114.877311 0 1 0 229.754622 0 114.877311 114.877311 0 1 0-229.754622 0Z" fill="#8C7051" p-id="1614"></path><path d="M515.442017 808.87395a127.784874 127.784874 0 1 1 127.870924-127.526723A127.870924 127.870924 0 0 1 515.442017 808.87395z m0-229.754622a101.969748 101.969748 0 1 0 102.055798 102.227899 102.055798 102.055798 0 0 0-102.055798-101.969748z" fill="#666666" p-id="1615"></path><path d="M457.444034 661.383529h26.159327" fill="#8C7051" p-id="1616"></path><path d="M483.603361 671.193277H457.185882a9.895798 9.895798 0 1 1 0-19.791596h25.815126a9.895798 9.895798 0 0 1 0 19.791596z" fill="#666666" p-id="1617"></path><path d="M470.523697 648.131765v24.954622" fill="#8C7051" p-id="1618"></path><path d="M470.523697 682.982185a9.981849 9.981849 0 0 1-9.895798-9.895798v-24.954622a9.895798 9.895798 0 0 1 19.791597 0v24.954622a9.895798 9.895798 0 0 1-9.895799 9.895798z" fill="#666666" p-id="1619"></path><path d="M508.816134 731.08437h26.159328" fill="#8C7051" p-id="1620"></path><path d="M534.631261 740.980168h-25.815127a9.895798 9.895798 0 1 1 0-19.791597h25.815127a9.895798 9.895798 0 1 1 0 19.791597z" fill="#666666" p-id="1621"></path><path d="M521.895798 717.918655v24.868572" fill="#8C7051" p-id="1622"></path><path d="M521.895798 752.683025a9.809748 9.809748 0 0 1-9.895798-9.895798v-24.868572a9.895798 9.895798 0 1 1 19.791597 0v24.868572a9.895798 9.895798 0 0 1-9.895799 9.895798z" fill="#666666" p-id="1623"></path><path d="M547.108571 656.822857h26.159328" fill="#8C7051" p-id="1624"></path><path d="M573.267899 666.718655h-25.815126a9.895798 9.895798 0 1 1 0-19.791596h25.815126a9.895798 9.895798 0 1 1 0 19.791596z" fill="#666666" p-id="1625"></path><path d="M560.188235 643.571092v24.954622" fill="#8C7051" p-id="1626"></path><path d="M560.446387 678.421513a9.895798 9.895798 0 0 1-9.895799-9.895799v-24.954622a9.895798 9.895798 0 1 1 19.791597 0v24.954622A9.981849 9.981849 0 0 1 560.446387 678.421513z" fill="#666666" p-id="1627"></path></svg>