<?xml version="1.0" standalone="no"?><!DOCTYPE svg PUBLIC "-//W3C//DTD SVG 1.1//EN" "http://www.w3.org/Graphics/SVG/1.1/DTD/svg11.dtd"><svg t="1533562973609" class="icon" style="" viewBox="0 0 1024 1024" version="1.1" xmlns="http://www.w3.org/2000/svg" p-id="2557" xmlns:xlink="http://www.w3.org/1999/xlink" width="32" height="32"><defs><style type="text/css"></style></defs><path d="M512 108.1c-223.1 0-404 180.9-404 404s180.9 404 404 404 404-180.9 404-404-180.9-404-404-404z m0 548c-79.5 0-144-64.5-144-144s64.5-144 144-144 144 64.5 144 144-64.5 144-144 144z" fill="#F7C36F" p-id="2558"></path><path d="M272 216c-7.3 0-14.5-3.3-19.2-9.6-8-10.6-5.8-25.6 4.8-33.6 7.8-5.9 15.9-11.5 24.1-16.9 11.1-7.2 26-4 33.2 7.1 7.2 11.1 4 26-7.1 33.2-7.3 4.7-14.5 9.7-21.4 14.9-4.3 3.3-9.4 4.9-14.4 4.9z" fill="#331D15" p-id="2559"></path><path d="M512 936c-17.7 0-35.5-1.1-52.9-3.3-101.8-12.7-195.5-62.1-264-139C126 716 88 616 88 512c0-49.3 8.4-97.6 24.9-143.6 16-44.4 39.2-85.7 69-122.6 8.3-10.3 23.4-11.9 33.8-3.6 10.3 8.3 11.9 23.4 3.6 33.8-53.7 66.5-83.3 150.3-83.3 236 0 189.3 141.4 349.7 329 373.1 15.5 1.9 31.3 2.9 47 2.9 207.3 0 376-168.7 376-376S719.3 136 512 136c-42.3 0-83.9 7-123.5 20.7-12.5 4.4-26.2-2.3-30.5-14.8-4.4-12.5 2.3-26.2 14.8-30.5C417.4 95.9 464.3 88 512 88c57.2 0 112.8 11.2 165 33.3 50.5 21.4 95.8 51.9 134.8 90.9s69.5 84.3 90.9 134.8c22.1 52.3 33.3 107.8 33.3 165s-11.2 112.8-33.3 165c-21.4 50.5-51.9 95.8-90.9 134.8s-84.3 69.5-134.8 90.9C624.8 924.8 569.2 936 512 936z" fill="#331D15" p-id="2560"></path><path d="M512 682c-93.7 0-170-76.3-170-170s76.3-170 170-170 170 76.3 170 170-76.3 170-170 170z m0-292c-67.3 0-122 54.7-122 122s54.7 122 122 122 122-54.7 122-122-54.7-122-122-122z" fill="#331D15" p-id="2561"></path><path d="M487 933c-10.7 0-20.5-7.2-23.2-18.1-3.3-12.8 4.5-25.9 17.4-29.2 77.8-19.8 152.4-76 210.1-158.4C741 656.1 772 573.6 772 512c0-41.3-9.4-80.8-27.9-117.4-6-11.8-1.3-26.3 10.6-32.3 11.8-6 26.3-1.3 32.3 10.6 22 43.4 33.1 90.2 33.1 139.1 0 71-34.3 164-89.5 242.8-64.3 91.8-148.7 154.8-237.6 177.4-2.1 0.6-4.1 0.8-6 0.8z" fill="#331D15" p-id="2562"></path><path d="M429 775.7c-24 0-47.5-4.6-70.1-13.7-45.8-18.5-85.3-54.6-114.2-104.4-26.2-45.2-40.7-97-40.7-145.6 0-82.3 32-159.6 90.2-217.8C352.4 236 429.7 204 512 204s159.6 32 217.8 90.2c9.4 9.4 9.4 24.6 0 33.9-9.4 9.4-24.6 9.4-33.9 0C646.7 279 581.4 252 512 252c-143.4 0-260 116.6-260 260 0 76.3 46.7 174 124.8 205.5 69.8 28.1 150.4-2.3 232.9-88.1 9.2-9.6 24.4-9.8 33.9-0.7 9.6 9.2 9.8 24.4 0.7 33.9C594 714.9 543 749.5 492.6 765.4c-21.6 6.8-42.8 10.3-63.6 10.3z" fill="#331D15" p-id="2563"></path><path d="M387 911c-10.4 0-20-6.8-23.1-17.4-3.7-12.7 3.7-26 16.4-29.7 1.1-0.3 65.3-19.6 128.2-72.7C591.8 721 634 627.1 634 512c0-13.3 10.7-24 24-24s24 10.7 24 24c0 71.6-15.2 137.2-45 194.9-24 46.3-57.3 87.4-99.1 122.4-70.8 59.2-141.3 79.9-144.3 80.8-2.2 0.6-4.4 0.9-6.6 0.9z" fill="#331D15" p-id="2564"></path><path d="M323 793m-24 0a24 24 0 1 0 48 0 24 24 0 1 0-48 0Z" fill="#DD3E3E" p-id="2565"></path><path d="M345 637m-24 0a24 24 0 1 0 48 0 24 24 0 1 0-48 0Z" fill="#DD3E3E" p-id="2566"></path><path d="M176 480m-24 0a24 24 0 1 0 48 0 24 24 0 1 0-48 0Z" fill="#DD3E3E" p-id="2567"></path><path d="M432 312m-24 0a24 24 0 1 0 48 0 24 24 0 1 0-48 0Z" fill="#DD3E3E" p-id="2568"></path><path d="M665 197m-24 0a24 24 0 1 0 48 0 24 24 0 1 0-48 0Z" fill="#DD3E3E" p-id="2569"></path><path d="M851 577m-24 0a24 24 0 1 0 48 0 24 24 0 1 0-48 0Z" fill="#DD3E3E" p-id="2570"></path><path d="M707 418.1m-24 0a24 24 0 1 0 48 0 24 24 0 1 0-48 0Z" fill="#DD3E3E" p-id="2571"></path><path d="M229.2 369.8c-4.1 0-8.3-1.1-12.2-3.3-11.4-6.7-15.2-21.4-8.5-32.9 30.6-51.9 74.2-95.3 126.2-125.7 53.6-31.3 114.9-47.8 177.3-47.8 13.3 0 24 10.7 24 24s-10.7 24-24 24c-107.2 0-207.6 57.4-262.1 149.9-4.5 7.6-12.5 11.8-20.7 11.8zM707.6 673.5c-4.8 0-9.6-1.4-13.7-4.3-10.9-7.6-13.5-22.6-5.9-33.4 19.7-28.1 30.1-61.2 30.1-95.6 0-13.3 10.7-24 24-24s24 10.7 24 24c0 44.4-13.4 86.9-38.8 123.2-4.7 6.5-12.2 10.1-19.7 10.1z" fill="#FFFFFF" p-id="2572"></path></svg>