<?xml version="1.0" standalone="no"?><!DOCTYPE svg PUBLIC "-//W3C//DTD SVG 1.1//EN" "http://www.w3.org/Graphics/SVG/1.1/DTD/svg11.dtd"><svg t="1534419290972" class="icon" style="" viewBox="0 0 1024 1024" version="1.1" xmlns="http://www.w3.org/2000/svg" p-id="1875" xmlns:xlink="http://www.w3.org/1999/xlink" width="64" height="64"><defs><style type="text/css"></style></defs><path d="M528.411858 106.23015c-232.353368 0-420.667381 188.314013-420.667381 420.667381s188.314013 420.667381 420.667381 420.667382 420.667381-188.314013 420.667381-420.667382S760.765226 106.23015 528.411858 106.23015z m218.746956 437.493913H310.78196v-33.653063h436.376854v33.653063z" fill="#98C4D8" p-id="1876"></path><path d="M494.758795 72.577087c-232.353368 0-420.667381 188.314013-420.667381 420.667382s188.314013 420.667381 420.667381 420.667381 420.667381-188.314013 420.667381-420.667381S727.11114 72.577087 494.758795 72.577087z m218.746956 437.493913H277.128898v-33.653063h436.376853v33.653063z" fill="#EFD9A0" p-id="1877"></path><path d="M289.986609 263.117214a30.277313 64.337882 55.515 1 0 106.064144-72.85499 30.277313 64.337882 55.515 1 0-106.064144 72.85499Z" fill="#FEFEFE" p-id="1878"></path><path d="M224.971391 368.997053a20.184875 35.32302 55.515 1 0 58.231725-39.999114 20.184875 35.32302 55.515 1 0-58.231725 39.999114Z" fill="#FEFEFE" p-id="1879"></path></svg>