<?xml version="1.0" standalone="no"?><!DOCTYPE svg PUBLIC "-//W3C//DTD SVG 1.1//EN" "http://www.w3.org/Graphics/SVG/1.1/DTD/svg11.dtd"><svg t="1534419402981" class="icon" style="" viewBox="0 0 1024 1024" version="1.1" xmlns="http://www.w3.org/2000/svg" p-id="10937" xmlns:xlink="http://www.w3.org/1999/xlink" width="64" height="64"><defs><style type="text/css"></style></defs><path d="M120.33744592 773.34300445c0-234.37615408 189.99371852-424.36987259 424.3698726-424.3698726s424.36987259 189.99371852 424.36987259 424.3698726" fill="#F9F0D4" p-id="10938"></path><path d="M672.32047408 421.43895703h197.32404147A21.40842667 21.40842667 0 0 1 891.05294222 442.82311111a21.40842667 21.40842667 0 0 1-21.40842667 21.40842667H672.32047408a1.35926518 1.35926518 0 0 1-1.35926519-1.35926519v-40.04977777a1.35926518 1.35926518 0 0 1 1.35926519-1.35926519zM696.13188741 507.14548148h287.63022222a21.40842667 21.40842667 0 0 1 21.40842667 21.40842667 21.40842667 21.40842667 0 0 1-21.40842667 21.40842667h-287.63022222a1.35926518 1.35926518 0 0 1-1.35926519-1.35926519v-40.04977778a1.35926518 1.35926518 0 0 1 1.35926519-1.35926518zM73.44279703 730.51401482H321.46014815a1.35926518 1.35926518 0 0 1 1.35926518 1.35926518v40.04977778a1.35926518 1.35926518 0 0 1-1.35926518 1.35926519H73.44279703A21.40842667 21.40842667 0 0 1 52.03437037 751.93457778a21.40842667 21.40842667 0 0 1 21.40842666-21.40842667z" fill="#F9F0D4" p-id="10939"></path><path d="M113.33480297 644.86817185l109.29948444 0 0 42.81685333-109.29948444 0 0-42.81685333Z" fill="#F9F0D4" p-id="10940"></path><path d="M120.37385482 559.23446518h87.56337777a1.35926518 1.35926518 0 0 1 1.35926519 1.35926519v40.04977778a1.35926518 1.35926518 0 0 1-1.35926519 1.35926518h-87.56337777a21.40842667 21.40842667 0 0 1-21.40842667-21.40842666 21.40842667 21.40842667 0 0 1 21.40842667-21.40842667z" fill="#F9F0D4" p-id="10941"></path><path d="M759.53189925 464.26794667l149.1065363 0 0 42.81685333-149.1065363 0 0-42.81685333Z" fill="#FFFFFF" p-id="10942"></path><path d="M217.82831408 773.34300445c0-174.82334815 141.71553185-316.53888 316.53888-316.53888s316.5267437 141.71553185 316.5267437 316.53888" fill="#FFFBEE" p-id="10943"></path><path d="M187.26912 573.09411555l27.25812148-10.8255763a1.21362963 1.21362963 0 0 0 0-2.22094222l-27.25812148-10.82557628a13.1072 13.1072 0 0 1-7.34245925-7.28177778l-10.8255763-27.27025779a1.21362963 1.21362963 0 0 0-2.23307853 0l-10.82557629 27.27025779a13.07079111 13.07079111 0 0 1-7.28177778 7.28177778l-27.25812148 10.82557628a1.21362963 1.21362963 0 0 0 0 2.22094222l27.25812148 10.8255763a13.07079111 13.07079111 0 0 1 7.28177778 7.28177778l10.82557629 27.25812149a1.21362963 1.21362963 0 0 0 2.23307853 0l10.8255763-27.25812149a13.1072 13.1072 0 0 1 7.34245925-7.28177778z" fill="#F5C244" p-id="10944"></path><path d="M178.98002963 567.96046222l15.55873185-6.2016474a0.69176889 0.69176889 0 0 0 0-1.21362964l-15.55873185-6.17737481a7.47595852 7.47595852 0 0 1-4.18702222-4.18702222l-6.17737482-15.54659556a0.67963259 0.67963259 0 0 0-1.21362962 0l-6.17737482 15.54659556a7.47595852 7.47595852 0 0 1-4.18702223 4.18702222L141.43032889 560.54518518a0.69176889 0.69176889 0 0 0 0 1.21362964l15.55873186 6.16523851a7.5487763 7.5487763 0 0 1 4.18702222 4.18702222l6.15310221 15.59514075a0.67963259 0.67963259 0 0 0 1.21362964 0l6.17737481-15.55873185a7.5487763 7.5487763 0 0 1 4.25984-4.18702223z" fill="#F5C244" p-id="10945"></path><path d="M403.65928297 170.15694222l17.42772148-6.91768889a0.76458667 0.76458667 0 0 0 0-1.41994666l-17.42772148-6.91768889a8.36190815 8.36190815 0 0 1-4.68461038-4.69674667l-6.91768889-17.41558519a0.76458667 0.76458667 0 0 0-1.41994667 0l-6.92982518 17.41558519a8.36190815 8.36190815 0 0 1-4.68461037 4.69674667l-17.42772148 6.91768889a0.76458667 0.76458667 0 0 0 0 1.41994666l17.42772148 6.91768889a8.36190815 8.36190815 0 0 1 4.68461037 4.69674667l6.92982518 17.42772148a0.76458667 0.76458667 0 0 0 1.41994667 0l6.91768889-17.42772148a8.36190815 8.36190815 0 0 1 4.68461038-4.69674667z" fill="#F5C244" p-id="10946"></path><path d="M398.36785778 166.88014222l9.93962667-3.9442963a0.43690667 0.43690667 0 0 0 0-0.81313184l-9.93962667-3.9442963a4.76956445 4.76956445 0 0 1-2.66998519-2.66998519l-3.95643259-9.93962667a0.42477037 0.42477037 0 0 0-0.80099555 0l-3.9442963 9.93962667a4.76956445 4.76956445 0 0 1-2.66998518 2.66998519l-9.93962667 3.9442963a0.43690667 0.43690667 0 0 0 0 0.81313184l9.93962667 3.9442963a4.75742815 4.75742815 0 0 1 2.66998518 2.68212148l3.9564326 9.93962667a0.42477037 0.42477037 0 0 0 0.80099555 0l3.95643259-9.93962667a4.75742815 4.75742815 0 0 1 2.65784889-2.68212148z" fill="#F5C244" p-id="10947"></path><path d="M871.36786963 575.65487408l13.68974222-5.40065186a0.60681482 0.60681482 0 0 0 0-1.11653925l-13.68974222-5.42492445a6.61428148 6.61428148 0 0 1-3.64088888-3.64088889l-5.43706075-13.67760593a0.59467852 0.59467852 0 0 0-1.11653925 0l-5.42492445 13.67760593a6.60214518 6.60214518 0 0 1-3.64088889 3.64088889l-13.67760593 5.42492445a0.59467852 0.59467852 0 0 0 0 1.11653925l13.67760593 5.43706075a6.57787259 6.57787259 0 0 1 3.64088889 3.64088888l5.42492445 13.68974223a0.60681482 0.60681482 0 0 0 1.11653925 0l5.43706075-13.68974223a6.59000889 6.59000889 0 0 1 3.64088888-3.67729777z" fill="#F5C244" p-id="10948"></path><path d="M867.2172563 573.08197925l7.80363852-3.10689184a0.3398163 0.3398163 0 0 0 0-0.63108741l-7.80363852-3.09475555A3.73797925 3.73797925 0 0 1 865.16622222 564.18607408l-3.10689185-7.80363853a0.3398163 0.3398163 0 0 0-0.6310874 0l-3.14330075 7.80363853a3.77438815 3.77438815 0 0 1-2.09957925 2.11171555l-7.80363852 3.09475555a0.3398163 0.3398163 0 0 0 0 0.63108741l7.80363852 3.10689186a3.76225185 3.76225185 0 0 1 2.09957925 2.09957925l3.09475556 7.80363852a0.3398163 0.3398163 0 0 0 0.6310874 0l3.10689185-7.80363852a3.72584297 3.72584297 0 0 1 2.09957927-2.14812445z" fill="#F5C244" p-id="10949"></path><path d="M107.87346963 602.05131852l179.04677926 0 0 42.81685333-179.04677926 0 0-42.81685333Z" fill="#FFFFFF" p-id="10950"></path><path d="M107.87346963 687.69716148l148.05067852 0 0 42.81685334-148.05067852 0 0-42.81685334Z" fill="#FFFFFF" p-id="10951"></path><path d="M584.4294163 339.19127703h-100.13658075a16.03204741 16.03204741 0 1 1 0-32.05195851h100.13658075a16.03204741 16.03204741 0 1 1 0 32.05195851z" fill="#2D2924" p-id="10952"></path><path d="M603.01008592 684.71163259H417.53106963L392.44534518 438.08995555h235.65046519l-25.08572445 246.62167704z" fill="#F5AC3A" p-id="10953"></path><path d="M490.33671111 582.81528889a16.01991111 16.01991111 0 0 1-16.03204741-16.03204741v-54.51624296a16.03204741 16.03204741 0 0 1 32.05195852 0v54.51624296a16.01991111 16.01991111 0 0 1-16.01991111 16.03204741zM578.38554075 582.81528889a16.01991111 16.01991111 0 0 1-16.01991112-16.03204741v-54.51624296a16.03204741 16.03204741 0 0 1 32.05195852 0v54.51624296a16.01991111 16.01991111 0 0 1-16.0320474 16.03204741zM719.11803259 410.39492741H349.60421925a16.03204741 16.03204741 0 0 1 0-32.05195852h369.51381334a16.03204741 16.03204741 0 0 1 0 32.05195852z" fill="#2D2924" p-id="10954"></path><path d="M629.6492563 700.7315437h-190.53985185a34.13940148 34.13940148 0 0 1-33.98162963-30.69269333l-30.34074074-291.69588148H694.04444445l-30.34074075 291.69588148a34.15153778 34.15153778 0 0 1-34.0544474 30.69269333z m-219.42423705-290.33661629l26.69985186 256.33071407a2.14812445 2.14812445 0 0 0 2.16026074 1.9539437h190.53985185a2.17239703 2.17239703 0 0 0 2.17239705-1.9539437l26.69985184-256.33071407z" fill="#2D2924" p-id="10955"></path></svg>