<?xml version="1.0" standalone="no"?><!DOCTYPE svg PUBLIC "-//W3C//DTD SVG 1.1//EN" "http://www.w3.org/Graphics/SVG/1.1/DTD/svg11.dtd"><svg t="1533565911424" class="icon" style="" viewBox="0 0 1024 1024" version="1.1" xmlns="http://www.w3.org/2000/svg" p-id="11951" xmlns:xlink="http://www.w3.org/1999/xlink" width="32" height="32"><defs><style type="text/css"></style></defs><path d="M1001.255614 311.076027c-15.227658-42.747108-37.343745-82.272761-65.114515-117.800154C843.015919 74.162005 686.192751 0 511.697275 0 316.902063 0 143.811689 92.71393 57.129419 237.176765 43.432524 260.001116 0 350.179007 0 440.551099c0 49.806892 9.755754 98.277223 27.999241 143.743148 43.089816 107.381832 133.53045 198.085208 254.757684 250.30248v153.670255a35.721594 35.721594 0 0 0 57.140843 28.581845l181.258247-135.917982C771.092939 877.103939 977.940048 718.53296 1017.260077 512.005712c4.432356-23.258448 6.739923-47.122346 6.739923-71.454613-0.011424-77.052176-16.130122-110.888876-22.744386-129.475072z" fill="#08B6C4" p-id="11952"></path><path d="M372.592108 269.996765a35.698747 35.698747 0 0 0-35.721594 35.710171v34.8534c0 19.751403 15.970192 35.721594 35.721594 35.721595s35.721594-15.970192 35.721595-35.721595v-34.8534a35.698747 35.698747 0 0 0-35.721595-35.710171M651.385044 269.996765a35.698747 35.698747 0 0 0-35.721594 35.710171v34.8534a35.687324 35.687324 0 0 0 35.721594 35.721595 35.698747 35.698747 0 0 0 35.721595-35.721595v-34.8534c0-19.728556-15.993039-35.710171-35.721595-35.710171M600.070237 431.754928c-16.358594-10.749607-38.40614-6.15732-49.349948 10.018497-0.15993 0.228472-15.558942 22.607303-39.080132 22.607302-22.858622 0-37.081003-20.710985-38.052009-22.138935a35.744442 35.744442 0 0 0-60.487957 38.029161c12.828702 20.642444 48.001963 55.552962 98.539966 55.552963 50.27526 0 85.905465-34.6592 99.008333-55.130289a35.55024 35.55024 0 0 0-10.578253-48.938699" fill="#FFFFFF" p-id="11953"></path></svg>