<?xml version="1.0" standalone="no"?><!DOCTYPE svg PUBLIC "-//W3C//DTD SVG 1.1//EN" "http://www.w3.org/Graphics/SVG/1.1/DTD/svg11.dtd"><svg t="1533561930648" class="icon" style="" viewBox="0 0 1024 1024" version="1.1" xmlns="http://www.w3.org/2000/svg" p-id="1502" xmlns:xlink="http://www.w3.org/1999/xlink" width="48" height="48"><defs><style type="text/css"></style></defs><path d="MNaN NaNaNaN NaN NaN 1 0 NaN NaN NaN NaN NaN 1 0 NaN NaNZ" fill="#BAF4EA" p-id="1503"></path><path d="M529.3 549.9c-85.2 0-154.5-69.3-154.5-154.5s69.3-154.5 154.5-154.5 154.5 69.3 154.5 154.5-69.3 154.5-154.5 154.5z m0-253c-54.3 0-98.5 44.2-98.5 98.5s44.2 98.5 98.5 98.5 98.5-44.2 98.5-98.5-44.2-98.5-98.5-98.5z" fill="#2D5B56" p-id="1504"></path><path d="M377.8 809.7c-29-10.6-47.4-25.1-47.4-43.7 0-86.1 88.9-155.8 198.5-155.8S727.4 679.9 727.4 766c0 39.6-84 61-174.7 64.1" fill="#BAF4EA" p-id="1505"></path><path d="M552.7 852c-14.9 0-27.3-11.7-28-26.8-0.7-15.4 11.3-28.5 26.7-29.2 100.8-4.5 161.1-34 161.1-59.9 0-102.2-83.2-185.4-185.4-185.4s-185.4 83.2-185.4 185.4c0 15.9 21.8 28.4 34.8 34.4 14 6.5 20.1 23.2 13.6 37.2-6.5 14-23.2 20.1-37.2 13.6-55.5-25.8-67.2-60.6-67.2-85.2 0-64.5 25.1-125.1 70.7-170.7 45.6-45.6 106.2-70.7 170.7-70.7 64.5 0 125.1 25.1 170.7 70.7s70.7 106.2 70.7 170.7c0 26-12.9 62.5-74.5 88.4-36.2 15.2-86 25-140.1 27.4-0.3 0.1-0.7 0.1-1.2 0.1z" fill="#2D5B56" p-id="1506"></path><path d="M447.6 846.8c-1.4 0-2.8-0.1-4.2-0.3-5.4-0.8-10.8-1.7-16.1-2.7-15.2-2.8-25.2-17.4-22.4-32.7 2.8-15.2 17.4-25.2 32.7-22.4 4.6 0.9 9.3 1.6 14.1 2.4 15.3 2.3 25.8 16.6 23.5 31.8-2 14-14 23.9-27.6 23.9zM193.8 173.7c12 0 21.7 9.7 21.7 21.7s-9.7 21.7-21.7 21.7-21.7-9.7-21.7-21.7 9.7-21.7 21.7-21.7m0-40c-34 0-61.7 27.7-61.7 61.7s27.7 61.7 61.7 61.7 61.7-27.7 61.7-61.7-27.7-61.7-61.7-61.7zM161.3 944.3h-0.2c-8.3-0.1-14.9-6.9-14.8-15.2l1-69.5c0.1-8.2 6.8-14.8 15-14.8h0.2c8.3 0.1 14.9 6.9 14.8 15.2l-1 69.5c-0.2 8.2-6.9 14.8-15 14.8z" fill="#2D5B56" p-id="1507"></path><path d="M211.5 895v0.2c-0.1 8.3-6.9 14.9-15.2 14.8l-69.5-1c-8.2-0.1-14.8-6.8-14.8-15v-0.2c0.1-8.3 6.9-14.9 15.2-14.8l69.5 1c8.2 0.1 14.8 6.8 14.8 15z" fill="#2D5B56" p-id="1508"></path><path d="M894 893m-30.9 0a30.9 30.9 0 1 0 61.8 0 30.9 30.9 0 1 0-61.8 0Z" fill="#2D5B56" p-id="1509"></path><path d="M896 431m-20.7 0a20.7 20.7 0 1 0 41.4 0 20.7 20.7 0 1 0-41.4 0Z" fill="#2D5B56" p-id="1510"></path><path d="M860.1 103v30.8M860.1 143.8c-5.5 0-10-4.5-10-10V103c0-5.5 4.5-10 10-10s10 4.5 10 10v30.8c0 5.5-4.5 10-10 10zM860.1 185.6v30.8M860.1 226.4c-5.5 0-10-4.5-10-10v-30.8c0-5.5 4.5-10 10-10s10 4.5 10 10v30.8c0 5.5-4.5 10-10 10zM803.4 159.7h30.8M834.2 169.7h-30.8c-5.5 0-10-4.5-10-10s4.5-10 10-10h30.8c5.5 0 10 4.5 10 10s-4.5 10-10 10zM886 159.7h30.7M916.7 169.7H886c-5.5 0-10-4.5-10-10s4.5-10 10-10h30.8c5.5 0 10 4.5 10 10s-4.5 10-10.1 10z" fill="#2D5B56" p-id="1511"></path><path d="M820 199.8l21.8-21.8M820 209.8c-2.6 0-5.1-1-7.1-2.9-3.9-3.9-3.9-10.2 0-14.1l21.8-21.8c3.9-3.9 10.2-3.9 14.1 0 3.9 3.9 3.9 10.2 0 14.1L827 206.9c-1.9 1.9-4.4 2.9-7 2.9z" fill="#2D5B56" p-id="1512"></path><path d="M878.4 141.4l21.7-21.8M878.4 151.4c-2.6 0-5.1-1-7.1-2.9-3.9-3.9-3.9-10.2 0-14.1l21.8-21.8c3.9-3.9 10.2-3.9 14.1 0 3.9 3.9 3.9 10.2 0 14.1l-21.8 21.8c-1.9 1.9-4.5 2.9-7 2.9z" fill="#2D5B56" p-id="1513"></path><path d="M900.1 199.8L878.4 178M900.1 209.8c-2.6 0-5.1-1-7.1-2.9l-21.8-21.8c-3.9-3.9-3.9-10.2 0-14.1 3.9-3.9 10.2-3.9 14.1 0l21.8 21.8c3.9 3.9 3.9 10.2 0 14.1-1.8 1.9-4.4 2.9-7 2.9z" fill="#2D5B56" p-id="1514"></path><path d="M841.8 141.4L820 119.6M841.8 151.4c-2.6 0-5.1-1-7.1-2.9l-21.8-21.8c-3.9-3.9-3.9-10.2 0-14.1 3.9-3.9 10.2-3.9 14.1 0l21.8 21.8c3.9 3.9 3.9 10.2 0 14.1-1.9 1.9-4.5 2.9-7 2.9z" fill="#2D5B56" p-id="1515"></path></svg>