<?xml version="1.0" standalone="no"?><!DOCTYPE svg PUBLIC "-//W3C//DTD SVG 1.1//EN" "http://www.w3.org/Graphics/SVG/1.1/DTD/svg11.dtd"><svg t="1533561957128" class="icon" style="" viewBox="0 0 1024 1024" version="1.1" xmlns="http://www.w3.org/2000/svg" p-id="1644" xmlns:xlink="http://www.w3.org/1999/xlink" width="48" height="48"><defs><style type="text/css"></style></defs><path d="M608.8 336.8h29.5c8 0 14.5 6.9 14.5 15.5v350.6c0 8.5-6.5 15.5-14.5 15.5H353.4c-8 0-14.5-6.9-14.5-15.5V352.3c0-8.5 6.5-15.5 14.5-15.5h31.1" fill="#BAF4EA" p-id="1645"></path><path d="M686.4 805.8H305.3c-32 0-58.1-26.1-58.1-58.1v-443c0-32 26.1-58.1 58.1-58.1h34c15.5 0 28 12.5 28 28s-12.5 28-28 28h-34c-1.2 0-2.1 0.9-2.1 2.1v443c0 1.2 0.9 2.1 2.1 2.1h381.1c1.2 0 2.1-0.9 2.1-2.1v-443c0-1.2-0.9-2.1-2.1-2.1h-31.8c-15.5 0-28-12.5-28-28s12.5-28 28-28h31.8c32 0 58.1 26.1 58.1 58.1v443c0 32.1-26 58.1-58.1 58.1z" fill="#2D5B56" p-id="1646"></path><path d="M548.3 302.6h-119c-15.5 0-28-12.5-28-28s12.5-28 28-28h119c15.5 0 28 12.5 28 28s-12.5 28-28 28zM498.9 656.5h-95.5c-15.5 0-28-12.5-28-28s12.5-28 28-28h95.5c15.5 0 28 12.5 28 28s-12.5 28-28 28zM588.3 550.9H403.4c-15.5 0-28-12.5-28-28s12.5-28 28-28h184.9c15.5 0 28 12.5 28 28s-12.5 28-28 28zM588.3 443.6H403.4c-15.5 0-28-12.5-28-28s12.5-28 28-28h184.9c15.5 0 28 12.5 28 28s-12.5 28-28 28zM151.3 124.3c12 0 21.7 9.7 21.7 21.7s-9.7 21.7-21.7 21.7-21.7-9.7-21.7-21.7 9.8-21.7 21.7-21.7m0-40c-34 0-61.7 27.7-61.7 61.7s27.7 61.7 61.7 61.7S213 180 213 146s-27.6-61.7-61.7-61.7zM834.8 186.9h-0.2c-8.3-0.1-14.9-6.9-14.8-15.2l1-69.5c0.1-8.2 6.8-14.8 15-14.8h0.2c8.3 0.1 14.9 6.9 14.8 15.2l-1 69.5c-0.1 8.2-6.8 14.8-15 14.8z" fill="#2D5B56" p-id="1647"></path><path d="M885.1 137.6v0.2c-0.1 8.3-6.9 14.9-15.2 14.8l-69.5-1c-8.2-0.1-14.8-6.8-14.8-15v-0.2c0.1-8.3 6.9-14.9 15.2-14.8l69.5 1c8.2 0.1 14.8 6.8 14.8 15z" fill="#2D5B56" p-id="1648"></path><path d="M867.6 483.6m-30.9 0a30.9 30.9 0 1 0 61.8 0 30.9 30.9 0 1 0-61.8 0Z" fill="#2D5B56" p-id="1649"></path><path d="M888.6 898.1m-20.7 0a20.7 20.7 0 1 0 41.4 0 20.7 20.7 0 1 0-41.4 0Z" fill="#2D5B56" p-id="1650"></path><path d="M123.6 837.6v30.8M123.6 878.4c-5.5 0-10-4.5-10-10v-30.8c0-5.5 4.5-10 10-10s10 4.5 10 10v30.8c0 5.5-4.4 10-10 10zM123.6 920.2v30.7M123.6 960.9c-5.5 0-10-4.5-10-10v-30.8c0-5.5 4.5-10 10-10s10 4.5 10 10v30.8c0 5.6-4.4 10-10 10zM67 894.3h30.7M97.7 904.3H67c-5.5 0-10-4.5-10-10s4.5-10 10-10h30.8c5.5 0 10 4.5 10 10s-4.5 10-10.1 10zM149.5 894.3h30.8M180.3 904.3h-30.8c-5.5 0-10-4.5-10-10s4.5-10 10-10h30.8c5.5 0 10 4.5 10 10s-4.5 10-10 10z" fill="#2D5B56" p-id="1651"></path><path d="M83.6 934.3l21.7-21.7M83.6 944.3c-2.6 0-5.1-1-7.1-2.9-3.9-3.9-3.9-10.2 0-14.1l21.8-21.8c3.9-3.9 10.2-3.9 14.1 0 3.9 3.9 3.9 10.2 0 14.1l-21.8 21.8c-1.9 2-4.5 2.9-7 2.9z" fill="#2D5B56" p-id="1652"></path><path d="M142 876l21.7-21.8M142 886c-2.6 0-5.1-1-7.1-2.9-3.9-3.9-3.9-10.2 0-14.1l21.8-21.8c3.9-3.9 10.2-3.9 14.1 0 3.9 3.9 3.9 10.2 0 14.1L149 883c-1.9 2-4.5 3-7 3z" fill="#2D5B56" p-id="1653"></path><path d="M163.7 934.3L142 912.6M163.7 944.3c-2.6 0-5.1-1-7.1-2.9l-21.8-21.8c-3.9-3.9-3.9-10.2 0-14.1 3.9-3.9 10.2-3.9 14.1 0l21.8 21.8c3.9 3.9 3.9 10.2 0 14.1-1.9 2-4.4 2.9-7 2.9z" fill="#2D5B56" p-id="1654"></path><path d="M105.3 876l-21.7-21.8M105.3 886c-2.6 0-5.1-1-7.1-2.9l-21.8-21.8c-3.9-3.9-3.9-10.2 0-14.1 3.9-3.9 10.2-3.9 14.1 0l21.8 21.8c3.9 3.9 3.9 10.2 0 14.1-1.8 1.9-4.4 2.9-7 2.9z" fill="#2D5B56" p-id="1655"></path></svg>