<?xml version="1.0" standalone="no"?><!DOCTYPE svg PUBLIC "-//W3C//DTD SVG 1.1//EN" "http://www.w3.org/Graphics/SVG/1.1/DTD/svg11.dtd"><svg t="1534300460539" class="icon" style="" viewBox="0 0 1024 1024" version="1.1" xmlns="http://www.w3.org/2000/svg" p-id="3612" xmlns:xlink="http://www.w3.org/1999/xlink" width="100px" height="100px"><defs><style type="text/css"></style></defs><path d="M721.8 196.3l65.3 87.7 1.1 137.9c0 32.5-17.6 60.8-43.7 76.2 10.3 4.2 21.5 6.5 33.3 6.5 48.9 0 88.5-39.6 88.5-88.5l-1.1-137.9-71.5-81.9h-71.9z" fill="#F5B200" p-id="3613"></path><path d="M794 618.1l-573.9 2.1 33.4 206.9h507.3z" fill="#FFD524" p-id="3614"></path><path d="M544.1 371.3c0-17.5-14.2-31.7-31.7-31.7s-31.7 14.2-31.7 31.7v44.9c0 17.5 14.2 31.7 31.7 31.7s31.7-14.2 31.7-31.7v-44.9z" fill="#1C1C1C" p-id="3615"></path><path d="M897.9 415.9l-1-137.9c-0.1-6.7-2.3-13.3-6.3-18.7l-61.1-81.9c-6-8-15.4-12.7-25.4-12.7H221c-10 0-19.4 4.7-25.4 12.7l-61.2 81.9c-4 5.4-6.2 12-6.3 18.7l-1.2 138.2c0 45.3 25.2 84.7 62.3 105.2l33.2 300.1c1.8 16 15.3 28.2 31.5 28.2h516.2c16.1 0 29.7-12.1 31.5-28.2L834.7 522c37.6-20.4 63.2-60.2 63.2-106.1zM282.2 786.3l-27.7-250.4c32-2 60.6-16.5 81-38.8 22 24 53.4 39.1 88.5 39.1 18.5 0 36.3-4.1 52.9-12.2 15.7-7.7 22.2-26.7 14.5-42.4-7.7-15.7-26.7-22.2-42.4-14.5-7.8 3.8-16.2 5.8-25 5.8-31.3 0-56.8-25.5-56.8-56.8v-44.9c0-17.5-14.2-31.7-31.7-31.7s-31.7 14.2-31.7 31.7v44.9c0 31.3-25.5 56.8-56.8 56.8s-56.8-25.5-56.8-56.5l1.1-127.5 45.5-60.9h551.4l45.4 60.9 1 127.3c0 31.3-25.5 56.8-56.8 56.8S721 447.5 721 416.2v-44.9c0-17.5-14.2-31.7-31.7-31.7s-31.7 14.2-31.7 31.7v44.9c0 24.3-15.4 45.9-38.4 53.7-12.3 4.2-26.2 4-38.4-0.5-16.4-6.1-34.6 2.2-40.8 18.5-6.1 16.4 2.2 34.6 18.5 40.8 13.5 5 27.6 7.6 42.1 7.6 13.3 0 26.5-2.2 39-6.5 19.4-6.7 36.3-18.1 49.5-32.6 20.2 22 48.4 36.4 80 38.6l-27.7 250.5H282.2z" fill="#1C1C1C" p-id="3616"></path></svg>